<svg xmlns="http://www.w3.org/2000/svg" viewBox="0 0 100 100" width="100" height="100">
  <!-- Skull outline -->
  <path d="M50 10 C65 10 75 20 75 35 C75 45 70 55 65 60 L65 70 C65 75 60 80 50 80 C40 80 35 75 35 70 L35 60 C30 55 25 45 25 35 C25 20 35 10 50 10 Z" 
        fill="none" stroke="#00BFFF" stroke-width="2"/>
  
  <!-- Eye sockets -->
  <rect x="35" y="30" width="10" height="8" rx="4" fill="none" stroke="#00BFFF" stroke-width="1.5"/>
  <rect x="55" y="30" width="10" height="8" rx="4" fill="none" stroke="#00BFFF" stroke-width="1.5"/>
  
  <!-- Nasal cavity -->
  <path d="M50 42 L47 50 L50 52 L53 50 Z" fill="none" stroke="#00BFFF" stroke-width="1.5"/>
  
  <!-- Teeth -->
  <line x1="45" y1="60" x2="45" y2="65" stroke="#00BFFF" stroke-width="1.5"/>
  <line x1="48" y1="60" x2="48" y2="67" stroke="#00BFFF" stroke-width="1.5"/>
  <line x1="52" y1="60" x2="52" y2="67" stroke="#00BFFF" stroke-width="1.5"/>
  <line x1="55" y1="60" x2="55" y2="65" stroke="#00BFFF" stroke-width="1.5"/>
  
  <!-- Security lock on forehead -->
  <rect x="46" y="20" width="8" height="6" rx="1" fill="none" stroke="#00BFFF" stroke-width="1.5"/>
  <path d="M48 20 C48 18 50 16 52 16 C54 16 56 18 56 20" fill="none" stroke="#00BFFF" stroke-width="1.5"/>
  <circle cx="50" cy="23" r="1" fill="#00BFFF"/>
  
  <!-- Circuit lines on left side -->
  <g stroke="#00BFFF" stroke-width="1" fill="none">
    <line x1="15" y1="25" x2="25" y2="25"/>
    <line x1="20" y1="20" x2="20" y2="30"/>
    <circle cx="15" cy="25" r="2" fill="none"/>
    <circle cx="20" cy="35" r="2" fill="none"/>
    <line x1="18" y1="35" x2="25" y2="35"/>
  </g>
  
  <!-- Binary code on right side -->
  <g fill="#00BFFF" font-family="monospace" font-size="8">
    <text x="78" y="20">1010</text>
    <text x="78" y="30">1101</text>
  </g>
  
  <!-- Terminal lines on right side -->
  <g stroke="#00BFFF" stroke-width="1">
    <line x1="78" y1="40" x2="90" y2="40"/>
    <line x1="78" y1="45" x2="85" y2="45"/>
    <line x1="78" y1="50" x2="88" y2="50"/>
  </g>
</svg>